<?xml version="1.0" encoding="UTF-8" standalone="no"?>
<!DOCTYPE svg PUBLIC "-//W3C//DTD SVG 1.1//EN" "http://www.w3.org/Graphics/SVG/1.1/DTD/svg11.dtd">
<svg width="100%" height="100%" viewBox="0 0 18 4" version="1.1" xmlns="http://www.w3.org/2000/svg" xmlns:xlink="http://www.w3.org/1999/xlink" xml:space="preserve" xmlns:serif="http://www.serif.com/" style="fill-rule:evenodd;clip-rule:evenodd;stroke-linejoin:round;stroke-miterlimit:2;">
    <g transform="matrix(1,0,0,1,-3148.85,-5950.63)">
        <g transform="matrix(2.38388,0,0,0.900056,3141.02,3274.21)">
            <g transform="matrix(1,0,0,1,9.60183,-88.9448)">
                <g transform="matrix(0.20399,0,0,4.91763,-640.34,-26601.5)">
                    <path d="M3144.54,6032.65C3144.54,6032.9 3142.7,6033.1 3140.44,6033.1L3132.17,6033.1C3129.91,6033.1 3128.07,6032.9 3128.07,6032.65C3128.07,6032.4 3129.91,6032.19 3132.17,6032.19L3140.44,6032.19C3142.7,6032.19 3144.54,6032.4 3144.54,6032.65Z"/>
                </g>
                <g transform="matrix(0.216187,0,0,4.91763,-682.565,-26601.5)">
                    <path d="M3144.54,6032.65C3144.54,6032.9 3142.8,6033.1 3140.67,6033.1L3131.94,6033.1C3129.8,6033.1 3128.07,6032.9 3128.07,6032.65C3128.07,6032.4 3129.8,6032.19 3131.94,6032.19L3140.67,6032.19C3142.8,6032.19 3144.54,6032.4 3144.54,6032.65Z"/>
                </g>
            </g>
        </g>
    </g>
</svg>
