<?xml version="1.0" encoding="UTF-8" standalone="no"?>
<!DOCTYPE svg PUBLIC "-//W3C//DTD SVG 1.1//EN" "http://www.w3.org/Graphics/SVG/1.1/DTD/svg11.dtd">
<svg width="100%" height="100%" viewBox="0 0 18 10" version="1.1" xmlns="http://www.w3.org/2000/svg" xmlns:xlink="http://www.w3.org/1999/xlink" xml:space="preserve" xmlns:serif="http://www.serif.com/" style="fill-rule:evenodd;clip-rule:evenodd;stroke-linejoin:round;stroke-miterlimit:2;">
    <g transform="matrix(1,0,0,1,-3174.45,-5968.38)">
        <g transform="matrix(2.38388,0,0,0.900056,3141.02,3274.21)">
            <g transform="matrix(0.419485,0,0,1.11104,-1297.25,-3717.9)">
                <path d="M3136.29,6046.02C3136.63,6045.91 3136.99,6045.8 3137.36,6045.67C3137.43,6045.59 3137.85,6045.09 3138.05,6044.81C3138.46,6044.21 3138.88,6043.68 3139.28,6043.38C3139.8,6043 3140.35,6042.85 3140.89,6042.9C3141.56,6042.95 3142.65,6043.39 3143.47,6045.42C3143.83,6046.33 3143.39,6047.36 3142.48,6047.72C3141.81,6047.99 3141.07,6047.81 3140.59,6047.34C3140.54,6047.4 3140.49,6047.46 3140.45,6047.51C3139.91,6048.21 3139.27,6048.75 3138.59,6048.99C3136.37,6049.76 3134.93,6050.11 3134.05,6050.19C3133.4,6050.25 3132.93,6050.18 3132.6,6050.08C3131.95,6049.88 3131.57,6049.51 3131.33,6049.1C3131.08,6048.69 3130.97,6048.19 3131.07,6047.6C3131.14,6047.16 3131.41,6046.56 3131.85,6045.94C3132.22,6045.43 3132.88,6044.59 3133.26,6044.12C3133.03,6044.17 3132.77,6044.23 3132.56,6044.31C3131.61,6044.69 3130.61,6045.3 3129.92,6045.93C3129.7,6046.13 3129.42,6046.48 3129.37,6046.54C3129.11,6047.45 3128.17,6047.99 3127.24,6047.76C3126.3,6047.52 3125.72,6046.55 3125.97,6045.61C3126.12,6044.99 3126.59,6044.22 3127.35,6043.49C3128.66,6042.23 3130.9,6040.96 3132.68,6040.6C3133.96,6040.34 3135.06,6040.55 3135.8,6041.09C3136.62,6041.69 3137.25,6042.74 3136.97,6044.56C3136.91,6044.92 3136.69,6045.45 3136.29,6046.02Z"/>
            </g>
        </g>
    </g>
</svg>
