<?xml version="1.0" encoding="UTF-8" standalone="no"?>
<!DOCTYPE svg PUBLIC "-//W3C//DTD SVG 1.1//EN" "http://www.w3.org/Graphics/SVG/1.1/DTD/svg11.dtd">
<svg width="100%" height="100%" viewBox="0 0 18 4" version="1.1" xmlns="http://www.w3.org/2000/svg" xmlns:xlink="http://www.w3.org/1999/xlink" xml:space="preserve" xmlns:serif="http://www.serif.com/" style="fill-rule:evenodd;clip-rule:evenodd;stroke-linecap:round;stroke-linejoin:round;">
    <g transform="matrix(1,0,0,1,-3123.41,-5950.66)">
        <g transform="matrix(2.38388,0,0,0.900056,3141.02,3274.21)">
            <g transform="matrix(0.419485,0,0,1.11104,-8.6461,2962.54)">
                <path d="M12,13C12.552,13 13,12.552 13,12C13,11.448 12.552,11 12,11C11.448,11 11,11.448 11,12C11,12.552 11.448,13 12,13Z" style="fill:none;fill-rule:nonzero;stroke:black;stroke-width:2px;"/>
            </g>
        </g>
        <g transform="matrix(2.38388,0,0,0.900056,3141.02,3274.21)">
            <g transform="matrix(0.419485,0,0,1.11104,-8.6461,2962.54)">
                <path d="M19,13C19.552,13 20,12.552 20,12C20,11.448 19.552,11 19,11C18.448,11 18,11.448 18,12C18,12.552 18.448,13 19,13Z" style="fill:none;fill-rule:nonzero;stroke:black;stroke-width:2px;"/>
            </g>
        </g>
        <g transform="matrix(2.38388,0,0,0.900056,3141.02,3274.21)">
            <g transform="matrix(0.419485,0,0,1.11104,-8.6461,2962.54)">
                <path d="M5,13C5.552,13 6,12.552 6,12C6,11.448 5.552,11 5,11C4.448,11 4,11.448 4,12C4,12.552 4.448,13 5,13Z" style="fill:none;fill-rule:nonzero;stroke:black;stroke-width:2px;"/>
            </g>
        </g>
    </g>
</svg>
