<?xml version="1.0" encoding="UTF-8" standalone="no"?>
<!DOCTYPE svg PUBLIC "-//W3C//DTD SVG 1.1//EN" "http://www.w3.org/Graphics/SVG/1.1/DTD/svg11.dtd">
<svg width="100%" height="100%" viewBox="0 0 18 7" version="1.1" xmlns="http://www.w3.org/2000/svg" xmlns:xlink="http://www.w3.org/1999/xlink" xml:space="preserve" xmlns:serif="http://www.serif.com/" style="fill-rule:evenodd;clip-rule:evenodd;stroke-linejoin:round;stroke-miterlimit:2;">
    <g transform="matrix(1,0,0,1,-3149.39,-5969.54)">
        <g transform="matrix(2.38388,0,0,0.900056,3141.02,3274.21)">
            <g transform="matrix(0.419485,0,0,1.11104,-1307.76,-3716.99)">
                <path d="M3129.39,6046.48C3129.15,6047.43 3128.19,6048 3127.24,6047.76C3126.3,6047.52 3125.72,6046.55 3125.97,6045.61C3126.49,6043.54 3129.04,6040.63 3132.22,6040.85C3133.55,6040.94 3135.03,6041.53 3136.5,6043.07C3136.76,6043.34 3137.28,6044 3138.08,6044C3138.67,6044 3139.33,6043.62 3140.13,6042.78C3140.81,6042.07 3141.93,6042.05 3142.63,6042.72C3143.34,6043.39 3143.36,6044.51 3142.69,6045.22C3140.95,6047.04 3139.36,6047.54 3138.08,6047.54C3136.07,6047.54 3134.6,6046.2 3133.94,6045.51C3133.25,6044.79 3132.61,6044.42 3131.99,6044.37C3130.63,6044.28 3129.61,6045.6 3129.39,6046.48Z"/>
            </g>
        </g>
    </g>
</svg>
